REM DIRINDEX 1\2\6,1\2\7,1\2\8,1\2\9,1\3\10,1\3\11,1\4\12,1\4\13,1\4\14,1\5\15,1\5\16,1\5\17
REM DIRNAME cjc020,folder01,folder02,folder03,folder04,folder05,folder06,folder07,folder08,folder09,folder10,folder11,folder12,folder13,folder14,folder15,folder16
TITLE ""
FILE "1900_2_sec06_0565_0579.mp3" MP3
  TRACK 01 AUDIO
    TITLE "0:"
    INDEX 01 00:00:00
  TRACK 02 AUDIO
    TITLE "13:cjc020_3238"
    INDEX 01 00:00:17
  TRACK 03 AUDIO
    TITLE "0:"
    INDEX 01 00:01:24
  TRACK 04 AUDIO
    TITLE "14:cjc020_3239"
    INDEX 01 00:01:28
  TRACK 05 AUDIO
    TITLE "0:"
    INDEX 01 00:04:15
  TRACK 06 AUDIO
    TITLE "13:cjc020_3240"
    INDEX 01 00:04:68
  TRACK 07 AUDIO
    TITLE "0:"
    INDEX 01 00:05:73
  TRACK 08 AUDIO
    TITLE "14:cjc020_3241"
    INDEX 01 00:06:00
  TRACK 09 AUDIO
    TITLE "0:"
    INDEX 01 00:07:00
  TRACK 10 AUDIO
    TITLE "13:cjc020_3242"
    INDEX 01 00:07:52
  TRACK 11 AUDIO
    TITLE "0:"
    INDEX 01 00:08:48
  TRACK 12 AUDIO
    TITLE "14:cjc020_3243"
    INDEX 01 00:08:52
  TRACK 13 AUDIO
    TITLE "0:"
    INDEX 01 00:10:45
  TRACK 14 AUDIO
    TITLE "13:cjc020_3244"
    INDEX 01 00:11:23
  TRACK 15 AUDIO
    TITLE "0:"
    INDEX 01 00:12:56
  TRACK 16 AUDIO
    TITLE "14:cjc020_3245"
    INDEX 01 00:12:58
  TRACK 17 AUDIO
    TITLE "0:"
    INDEX 01 00:14:66
  TRACK 18 AUDIO
    TITLE "13:cjc020_3246"
    INDEX 01 00:15:46
  TRACK 19 AUDIO
    TITLE "0:"
    INDEX 01 00:16:51
  TRACK 20 AUDIO
    TITLE "14:cjc020_3247"
    INDEX 01 00:16:57
  TRACK 21 AUDIO
    TITLE "0:"
    INDEX 01 00:18:03
  TRACK 22 AUDIO
    TITLE "13:cjc020_3248"
    INDEX 01 00:18:58
  TRACK 23 AUDIO
    TITLE "0:"
    INDEX 01 00:19:48
  TRACK 24 AUDIO
    TITLE "14:cjc020_3249"
    INDEX 01 00:19:65
  TRACK 25 AUDIO
    TITLE "0:"
    INDEX 01 00:22:72
  TRACK 26 AUDIO
    TITLE "13:cjc020_3250"
    INDEX 01 00:23:50
  TRACK 27 AUDIO
    TITLE "0:"
    INDEX 01 00:24:63
  TRACK 28 AUDIO
    TITLE "14:cjc020_3251"
    INDEX 01 00:24:65
  TRACK 29 AUDIO
    TITLE "0:"
    INDEX 01 00:27:16
  TRACK 30 AUDIO
    TITLE "13:cjc020_3252"
    INDEX 01 00:27:67
  TRACK 31 AUDIO
    TITLE "0:"
    INDEX 01 00:29:19
  TRACK 32 AUDIO
    TITLE "14:cjc020_3253"
    INDEX 01 00:29:21
  TRACK 33 AUDIO
    TITLE "0:"
    INDEX 01 00:31:27
  TRACK 34 AUDIO
    TITLE "13:cjc020_3254"
    INDEX 01 00:32:09
  TRACK 35 AUDIO
    TITLE "0:"
    INDEX 01 00:33:40
  TRACK 36 AUDIO
    TITLE "14:cjc020_3255"
    INDEX 01 00:33:44
  TRACK 37 AUDIO
    TITLE "0:"
    INDEX 01 00:37:61
  TRACK 38 AUDIO
    TITLE "13:cjc020_3256"
    INDEX 01 00:38:45
  TRACK 39 AUDIO
    TITLE "0:"
    INDEX 01 00:39:51
  TRACK 40 AUDIO
    TITLE "14:cjc020_3257"
    INDEX 01 00:39:54
  TRACK 41 AUDIO
    TITLE "0:"
    INDEX 01 00:43:48
  TRACK 42 AUDIO
    TITLE "13:cjc020_3258"
    INDEX 01 00:44:28
  TRACK 43 AUDIO
    TITLE "0:"
    INDEX 01 00:45:45
  TRACK 44 AUDIO
    TITLE "14:cjc020_3259"
    INDEX 01 00:45:53
  TRACK 45 AUDIO
    TITLE "0:"
    INDEX 01 00:50:07
  TRACK 46 AUDIO
    TITLE "13:cjc020_3260"
    INDEX 01 00:50:60
  TRACK 47 AUDIO
    TITLE "0:"
    INDEX 01 00:52:00
  TRACK 48 AUDIO
    TITLE "14:cjc020_3261"
    INDEX 01 00:52:04
  TRACK 49 AUDIO
    TITLE "0:"
    INDEX 01 00:53:06
  TRACK 50 AUDIO
    TITLE "13:cjc020_3262"
    INDEX 01 00:53:60
  TRACK 51 AUDIO
    TITLE "0:"
    INDEX 01 00:55:10
  TRACK 52 AUDIO
    TITLE "14:cjc020_3263"
    INDEX 01 00:55:12
  TRACK 53 AUDIO
    TITLE "0:"
    INDEX 01 00:57:45
  TRACK 54 AUDIO
    TITLE "13:cjc020_3264"
    INDEX 01 00:58:22
  TRACK 55 AUDIO
    TITLE "0:"
    INDEX 01 00:59:57
  TRACK 56 AUDIO
    TITLE "14:cjc020_3265"
    INDEX 01 00:59:61
  TRACK 57 AUDIO
    TITLE "0:"
    INDEX 01 01:01:01
  TRACK 58 AUDIO
    TITLE "12:cjc020_3266"
    INDEX 01 01:02:48
  TRACK 59 AUDIO
    TITLE "0:"
    INDEX 01 01:04:19
  TRACK 60 AUDIO
    TITLE "13:cjc020_3267"
    INDEX 01 01:05:17
  TRACK 61 AUDIO
    TITLE "0:"
    INDEX 01 01:06:36
  TRACK 62 AUDIO
    TITLE "14:cjc020_3268"
    INDEX 01 01:06:38
  TRACK 63 AUDIO
    TITLE "0:"
    INDEX 01 01:09:12
